HIERARCHY
ROOT Hips
{
  OFFSET 267.745 86.9975 -272.335
  CHANNELS 6 Xposition Yposition Zposition Zrotation Xrotation Yrotation
  JOINT LeftUpLeg
  {
    OFFSET 8.64259 1.95398 -2.38835
    CHANNELS 3 Zrotation Xrotation Yrotation
    JOINT LeftLeg
    {
      OFFSET 43.7702 0 0
      CHANNELS 3 Zrotation Xrotation Yrotation
      JOINT LeftFoot
      {
        OFFSET 40.6238 0 0
        CHANNELS 3 Zrotation Xrotation Yrotation
        JOINT LeftToeBase
        {
          OFFSET 12.7242 0 0
          CHANNELS 3 Zrotation Xrotation Yrotation
          End Site
          {
            OFFSET 0 0 0
          }
        }
      }
    }
  }
  JOINT RightUpLeg
  {
    OFFSET -8.2249 1.95398 -2.59336
    CHANNELS 3 Zrotation Xrotation Yrotation
    JOINT RightLeg
    {
      OFFSET 43.5653 0 0
      CHANNELS 3 Zrotation Xrotation Yrotation
      JOINT RightFoot
      {
        OFFSET 40.6238 0 0
        CHANNELS 3 Zrotation Xrotation Yrotation
        JOINT RightToeBase
        {
          OFFSET 12.7242 0 0
          CHANNELS 3 Zrotation Xrotation Yrotation
          End Site
          {
            OFFSET 0 0 0
          }
        }
      }
    }
  }
  JOINT Spine
  {
    OFFSET 0.165834 0.87714 6.61349
    CHANNELS 3 Zrotation Xrotation Yrotation
    JOINT Spine1
    {
      OFFSET 7.38963 1.71661e-005 0
      CHANNELS 3 Zrotation Xrotation Yrotation
      JOINT Spine2
      {
        OFFSET 11.9445 1.14441e-005 0
        CHANNELS 3 Zrotation Xrotation Yrotation
        JOINT Spine3
        {
          OFFSET 14.7254 4.19617e-005 0
          CHANNELS 3 Zrotation Xrotation Yrotation
          JOINT Spine4
          {
            OFFSET 10.9679 0 0
            CHANNELS 3 Zrotation Xrotation Yrotation
            JOINT RightShoulder
            {
              OFFSET 2.46616 -1.6653 3.69651
              CHANNELS 3 Zrotation Xrotation Yrotation
              JOINT RightArm
              {
                OFFSET 13.0012 0 0
                CHANNELS 3 Zrotation Xrotation Yrotation
                JOINT RightForeArm
                {
                  OFFSET 28.7848 1.52588e-005 0
                  CHANNELS 3 Zrotation Xrotation Yrotation
                  JOINT RightHand
                  {
                    OFFSET 26.5688 1.52588e-005 0
                    CHANNELS 3 Zrotation Xrotation Yrotation
                    End Site
                    {
                      OFFSET 0 0 0
                    }
                  }
                }
              }
            }
            JOINT LeftShoulder
            {
              OFFSET 2.38034 -1.29275 -3.7523
              CHANNELS 3 Zrotation Xrotation Yrotation
              JOINT LeftArm
              {
                OFFSET 16.3182 6.10352e-005 0
                CHANNELS 3 Zrotation Xrotation Yrotation
                JOINT LeftForeArm
                {
                  OFFSET 27.0901 0 0
                  CHANNELS 3 Zrotation Xrotation Yrotation
                  JOINT LeftHand
                  {
                    OFFSET 24.5451 1.52588e-005 0
                    CHANNELS 3 Zrotation Xrotation Yrotation
                    End Site
                    {
                      OFFSET 0 0 0
                    }
                  }
                }
              }
            }
            JOINT Neck
            {
              OFFSET 5.0226 -0.0266342 0
              CHANNELS 3 Zrotation Xrotation Yrotation
              JOINT Head
              {
                OFFSET 6.69364 2.86102e-005 0
                CHANNELS 3 Zrotation Xrotation Yrotation
                End Site
                {
                  OFFSET 0 0 0
                }
              }
            }
          }
        }
      }
    }
  }
}
MOTION
Frames:	9
Frame Time:	0.0416667
244.623 99.4386 -228.921 -92.7391 -59.4431 -91.7206 -176.409 -0.903248 88.9221 -8.54967 18.8268 2.75649 58.5864 3.24476 13.4411 40.5422 -1.28737 -2.10211 175.128 4.54249 90.0166 -20.5827 -8.12324 1.0127 65.3726 1.27215 8.972 30.9933 -0.391815 -2.25103 -0.522131 7.46837 -90.0336 11.9378 -1.05388 0.0468256 0.267295 -1.05082 0.0931621 -22.2711 -1.01927 -0.27212 -2.2585 -1.01924 -0.27212 101.455 -53.6586 -83.2307 13.3602 -32.0719 -24.7613 20.5314 12.4795 0.0111583 -28.0258 1.09073 -9.6736 -80.7516 -51.2174 92.5124 -34.9017 -0.0155627 -18.8899 8.38826 45.2886 -13.2618 -0.789317 -0.0656108 -2.56699 3.68695 -0.161633 -25.4281 -18.7144 1.32339 22.7247 
244.372 99.4025 -228.852 -92.5579 -59.2927 -91.9273 -176.147 -0.992141 88.8099 -8.39869 18.9242 2.37647 59.0704 3.84757 14.3534 39.1474 -1.05159 -4.28216 174.878 4.58086 89.6474 -20.9124 -6.91538 1.02164 67.0064 0.842281 10.6844 28.2683 0.371523 -2.47279 -0.488801 7.49945 -90.0037 11.8758 -0.973695 0.0969034 0.205196 -0.968486 0.139664 -22.3328 -0.957793 -0.200236 -2.32017 -0.957784 -0.200238 101.015 -53.94 -83.8819 14.1858 -30.7224 -23.613 18.9969 9.72922 -0.0462841 -26.1138 0.741239 -8.49409 -81.1006 -50.9423 91.9735 -35.0725 0.404825 -19.4221 7.77339 44.3168 -12.8635 -0.409343 -0.053228 -2.18679 4.76202 -0.240165 -25.6306 -19.3245 1.31362 23.352 
244.229 99.5259 -228.756 -92.8132 -59.5912 -92.2547 -176.171 -1.15155 88.8257 -8.41507 18.9536 2.41407 59.1364 3.68565 13.524 39.5829 -1.12818 -3.54076 175.122 4.77255 89.7371 -21.309 -6.07995 0.687906 65.0182 2.78917 10.6494 30.1049 -0.377165 0.0913742 -0.519142 7.51599 -90.0063 11.8428 -1.03525 0.097977 0.172231 -1.02994 0.14344 -22.3661 -1.01684 -0.217729 -2.35349 -1.01684 -0.217731 100.859 -53.7472 -84.1171 15.3507 -30.1987 -21.964 17.5832 8.45696 -1.08386 -24.2464 0.26611 -6.52439 -80.8462 -50.9738 92.358 -35.2518 0.584131 -19.6128 8.13824 44.3046 -13.3863 -0.350827 -0.054226 -2.31209 6.1586 0.0435881 -25.2 -20.4995 1.5198 23.7449 
244.159 99.5947 -228.641 -92.9411 -59.8283 -92.1982 -176.106 -1.32127 88.9584 -8.42793 19.4027 2.49072 59.0587 3.70862 14.0066 39.2081 -1.07499 -3.58403 175.532 4.61299 89.9269 -21.4915 -0.0424618 -0.0187774 65.4527 5.02935 17.2888 25.868 0.496106 2.00128 -0.532738 7.51163 -90.0481 11.8512 -1.08197 0.0196538 0.18068 -1.08007 0.0672491 -22.3579 -1.03787 -0.306471 -2.34524 -1.03786 -0.306473 100.888 -53.5094 -84.0797 16.2495 -29.9122 -20.2653 16.1431 6.85659 -3.3713 -22.1334 0.11748 -5.84894 -80.7291 -51.237 92.5474 -35.2776 0.427074 -19.6085 8.69329 44.8217 -13.9713 -0.943083 -0.0644152 -2.29241 7.30031 0.522069 -24.1697 -21.5143 1.87208 23.3527 
244.108 99.5448 -228.634 -93.1433 -59.6733 -92.3877 -175.947 -1.46313 89.0226 -8.40019 19.2541 2.378 59.2728 3.97265 14.2565 39.323 -1.08225 -4.0267 175.218 4.36508 89.8033 -21.4111 0.00868299 0.278077 66.3861 4.39104 17.2395 24.71 0.779215 1.85203 -0.503401 7.49845 -90.0649 11.8773 -1.03154 -0.0188361 0.206775 -1.03135 0.0265786 -22.3314 -0.97818 -0.328012 -2.31878 -0.978175 -0.328018 100.897 -53.262 -84.0719 17.2543 -29.8068 -18.455 14.9685 6.31241 -5.94836 -23.0623 -0.190593 -4.26785 -80.8945 -51.5941 92.319 -35.0657 0.37604 -19.5929 8.44377 44.967 -13.6446 -0.869912 -0.0675021 -2.61322 7.43924 1.18856 -23.5231 -21.6886 2.37283 23.429 
244.115 99.5164 -228.668 -92.917 -59.5584 -92.4266 -176.093 -1.36368 88.7925 -8.3243 18.7333 2.35073 59.3176 3.79855 13.5599 39.6038 -1.13934 -3.31695 175.189 4.65137 89.6326 -21.6683 -0.481681 0.248189 66.4765 4.15467 16.5824 25.3779 0.620705 1.87616 -0.487829 7.47969 -90.0562 11.9149 -0.996398 -0.00474785 0.244312 -0.995651 0.0391047 -22.2937 -0.948925 -0.304023 -2.28106 -0.948904 -0.30402 101.206 -53.3365 -83.6074 17.4973 -30.2337 -17.1353 14.2242 6.28013 -8.69792 -26.4615 -0.692714 -2.19747 -80.8073 -51.9356 92.4669 -34.5084 0.902575 -19.3511 7.61591 43.3055 -13.2886 -1.15986 -0.085629 -3.99003 7.98785 1.77803 -22.6972 -21.9337 2.85758 23.297 
244.085 99.5256 -228.714 -93.2702 -59.6701 -92.6599 -176.013 -1.52253 88.9198 -8.3655 18.8485 2.37949 59.3512 3.68953 12.9199 39.7974 -1.18549 -2.02282 175.456 4.62326 89.8754 -21.9287 -0.0868774 0.000634978 66.1683 4.41788 16.8176 25.8994 0.559038 1.37414 -0.505811 7.48518 -90.064 11.9039 -1.03594 -0.0161134 0.233358 -1.03563 0.029492 -22.3049 -0.983188 -0.326742 -2.29223 -0.983198 -0.326747 101.197 -53.4611 -83.6185 18.2963 -30.1682 -15.5079 12.7056 5.20844 -10.2614 -20.9244 -0.481575 -2.54287 -80.7841 -51.5482 92.4811 -35.0946 0.229948 -19.3189 8.08124 45.1592 -13.0233 -0.829366 -0.0629954 -2.29175 8.2459 2.35405 -22.2361 -22.1087 3.3449 23.2652 
243.879 99.4944 -228.733 -93.8426 -59.9104 -93.3863 -176.18 -1.84482 88.7931 -8.41238 18.9964 2.52016 59.2705 3.60408 12.8734 40.414 -1.27686 -1.72063 175.336 4.31625 89.7672 -22.0931 0.713783 -0.00773677 66.6424 4.25528 16.9287 25.3936 0.553128 2.39007 -0.533389 7.53949 -90.0805 11.7952 -1.09862 -0.0441297 0.124723 -1.09947 0.00425872 -22.4138 -1.03456 -0.372308 -2.40119 -1.03455 -0.372306 101.493 -53.1577 -83.1783 18.8981 -29.8506 -14.6317 11.9581 5.11934 -11.5 -21.1181 -0.583749 -2.01541 -80.9536 -51.795 92.2422 -35.093 -0.1883 -19.5886 7.54613 45.1502 -12.0055 -1.0684 -0.0774061 -3.23352 9.4326 2.84614 -20.5964 -22.7801 3.73341 22.133 
243.229 99.4869 -228.52 -93.7258 -60.6012 -93.5891 -176.084 -1.97656 88.8254 -8.51753 19.7738 2.45473 59.7564 4.4713 14.402 40.3525 -1.23806 -3.73374 175.49 4.09808 89.8162 -22.3111 1.53663 -0.258011 66.7356 5.03565 18.0731 25.2718 0.688487 1.52271 -0.635494 7.5261 -90.0764 11.8223 -1.29971 -0.0139698 0.151984 -1.29905 0.0432485 -22.388 -1.2354 -0.404003 -2.37537 -1.23541 -0.404 101.407 -52.9191 -83.3112 20.7552 -28.0782 -13.3057 10.797 3.4299 -11.4648 -20.8758 -0.643748 -1.64114 -80.7403 -51.6971 92.5542 -35.0702 -0.167324 -19.121 7.54879 44.4766 -12.2252 -0.508794 -0.0734996 -3.32324 10.2891 3.541 -18.7748 -23.4379 4.23348 20.8662 
